PathFileType	4	(X/Y/Z)	Walk9.trc
DataRate	CameraRate	NumFrames	NumMarkers	Units	OrigDataRate	OrigDataStartFrame	OrigNumFrames
200.000000	200.000000	8	59	mm	200.000000	353	546
Frame#	Times		LBHD		C7		RBack		LPSI		RPSI		RCAR		LElbowM		LTB1		LLFC		T10		LUA1		RElbowM		CLAV		RFA1		LCAR		RUA1		LFA1		RACR1		LACR1		LWRU		RFHD		RTH3		LWRR		RTH2		RTB1		RTB4		RTB3		RToe		RWRU		RMT1		RBHD		LFHD		RTH4		RLFC		RCAL		RWRR		RMT5		RTH1		LTH3		LTH4		RTB2		LTH1		LElbow		RMMAL		LMT1		STRN		RElbow		LTH2		LTB2		RASI		LTB3		RLMAL		LCAL		LToe		LASI		LLMAL		LMT5		LTB4		LMMAL
			X1	Y1	Z1	X2	Y2	Z2	X3	Y3	Z3	X4	Y4	Z4	X5	Y5	Z5	X6	Y6	Z6	X7	Y7	Z7	X8	Y8	Z8	X9	Y9	Z9	X10	Y10	Z10	X11	Y11	Z11	X12	Y12	Z12	X13	Y13	Z13	X14	Y14	Z14	X15	Y15	Z15	X16	Y16	Z16	X17	Y17	Z17	X18	Y18	Z18	X19	Y19	Z19	X20	Y20	Z20	X21	Y21	Z21	X22	Y22	Z22	X23	Y23	Z23	X24	Y24	Z24	X25	Y25	Z25	X26	Y26	Z26	X27	Y27	Z27	X28	Y28	Z28	X29	Y29	Z29	X30	Y30	Z30	X31	Y31	Z31	X32	Y32	Z32	X33	Y33	Z33	X34	Y34	Z34	X35	Y35	Z35	X36	Y36	Z36	X37	Y37	Z37	X38	Y38	Z38	X39	Y39	Z39	X40	Y40	Z40	X41	Y41	Z41	X42	Y42	Z42	X43	Y43	Z43	X44	Y44	Z44	X45	Y45	Z45	X46	Y46	Z46	X47	Y47	Z47	X48	Y48	Z48	X49	Y49	Z49	X50	Y50	Z50	X51	Y51	Z51	X52	Y52	Z52	X53	Y53	Z53	X54	Y54	Z54	X55	Y55	Z55	X56	Y56	Z56	X57	Y57	Z57	X58	Y58	Z58	X59	Y59	Z59

353	1.765	0.22514	1463.3	-78.478	-22.691	1327.9	-10.152	-51.264	1226.6	113.64	-71.843	885.23	-34.554	-64.101	875.35	63.346	65.317	712.79	306.93	36.256	937.44	-223.46	-58.836	317.83	-65.354	-37.292	437.63	-147.16	-42.359	1059.8	-14.97	88.43	1096.5	-257.27	-33.839	935.35	180.27	105.11	1253.6	-1.1078	-1.3531	845.91	274.28	248.12	738.36	-315.24	31.626	1113.8	227.57	123.89	866.09	-308.43	44.662	1267	145.77	64.895	1266.8	-172.16	185.98	757.46	-316.69	176.7	1482.4	22.509	182.89	536.04	145.96	236.38	775.83	-265.87	211.8	657.45	140.4	279.75	336.69	43.007	295.94	246.35	47.716	322.81	156.32	45.61	468.84	51.89	36.939	21.36	736.34	269.24	408.92	65.329	29.789	-3.3031	1471.1	44.706	171.98	1473	-54.049	149.13	622.84	170.24	232.6	452.53	126.82	261.05	33.589	78.447	95.231	748.37	261.49	396.77	46.727	83.01	120.24	703.74	195.72	20.167	536.44	-156.58	42.334	626.79	-177.37	281.26	243.01	117.61	57.636	717.36	-201.12	66.501	978.57	-284.31	308.18	72.908	17.02	-177.02	53.64	-32.873	171.49	1151.1	-2.9046	-1.422	973.09	262.04	106.43	625.24	-141.72	-145.84	261.55	-122.06	167.05	842.53	129.99	-169.83	173.35	-46.409	315.56	67.12	95.687	-318.97	112.61	-38.712	-136.87	24.334	-40.957	111.47	839.06	-175.11	-265.41	116.25	-83.876	-207.84	44.155	-87.234	-121.83	250.87	-56.12	-244.2	113.97	-5.7352
354	1.77	6.0353	1463.8	-77.53	-16.561	1328.4	-9.0707	-44.861	1226.8	114.75	-65.366	885.16	-34.332	-57.671	875.82	63.772	72.289	712.71	307.11	42.009	937.92	-222.32	-51.942	317.82	-66.33	-29.173	437.54	-147.84	-36.056	1060.3	-14.041	93.803	1096.9	-256.41	-26.849	935.53	180.88	111.27	1254.2	-0.25001	5.7686	845.96	274.74	253.28	738.72	-315	38.648	1113.9	228.3	129.21	866.54	-307.71	51.028	1267.4	146.77	70.75	1267.3	-171.21	191.13	757.83	-316.16	182.61	1483.2	23.229	188.64	536.67	146.35	241.8	776.2	-265.61	218.48	657.83	140.01	284.41	336.52	43.109	299.5	246	47.74	325.28	155.62	45.592	469.98	48.148	36.486	28.261	736.34	269.61	410.21	62.895	29.527	2.656	1471.6	45.663	177.81	1473.7	-53.326	155.83	623.82	170.55	237.68	452.6	127.29	261.73	34.038	78.514	102.17	748.23	261.66	397.78	44.473	82.816	127.86	705.04	196.06	27.972	536.5	-157.08	49.731	626.97	-177.46	284.96	242.78	117.67	64.598	717.76	-200.89	71.935	979.03	-283.33	309.57	72.361	17.011	-175.47	53.898	-32.91	177.79	1151.8	-2.105	5.9234	973.12	262.6	113.87	625.61	-141.91	-140.16	263.11	-122.67	173.55	843.19	130.38	-165.15	175.06	-47.17	316.82	66.523	95.727	-314.87	117.58	-38.785	-137.1	24.288	-40.673	118.28	839.47	-174.42	-261.8	119.67	-84.232	-206.32	45.227	-87.21	-115.97	251.83	-56.941	-240.27	116.95	-6.234
355	1.775	11.857	1464.3	-76.583	-10.42	1329	-7.9987	-38.442	1227.3	115.87	-58.934	885.12	-34.201	-51.303	876.4	64.129	79.364	712.75	307.29	47.726	938.53	-221.14	-44.737	317.84	-67.375	-20.763	437.46	-148.56	-29.814	1060.9	-13.126	99.137	1097.5	-255.56	-19.783	935.84	181.47	117.42	1254.9	0.59633	12.983	846.14	275.2	258.3	739.13	-314.77	45.779	1114.2	229.02	134.44	867.07	-306.98	57.421	1267.9	147.76	76.622	1267.9	-170.28	196.14	758.26	-315.61	188.52	1484.1	23.949	194.15	537.34	146.83	247.1	776.62	-265.36	225.05	658.2	139.73	288.96	336.41	43.256	302.92	245.7	47.832	327.62	155.01	45.65	470.96	44.705	36.101	35.255	736.46	269.99	411.35	60.676	29.346	8.6242	1472.2	46.621	183.65	1474.6	-52.601	162.37	624.86	170.92	242.74	452.79	127.8	262.32	34.487	78.611	109.2	748.21	261.8	398.67	42.423	82.699	135.37	706.44	196.42	35.988	536.62	-157.6	57.266	627.22	-177.56	288.55	242.63	117.81	71.632	718.21	-200.68	77.306	979.6	-282.33	310.84	71.922	17.065	-173.79	54.192	-32.931	184.07	1152.6	-1.3204	13.372	973.27	263.16	121.43	626.1	-142.09	-134.19	264.75	-123.33	179.95	843.98	130.8	-160.14	176.84	-47.984	317.96	66.014	95.833	-310.36	122.71	-38.858	-137.31	24.245	-40.382	125.1	839.95	-173.66	-257.86	123.21	-84.591	-204.65	46.409	-87.196	-109.79	252.84	-57.819	-235.99	120.03	-6.7426
356	1.78	17.688	1465	-75.64	-4.2758	1329.7	-6.9383	-32.009	1227.8	116.99	-52.55	885.11	-34.154	-44.996	877.08	64.419	86.543	712.92	307.46	53.409	939.26	-219.91	-37.219	317.88	-68.482	-12.061	437.38	-149.32	-23.635	1061.6	-12.226	104.44	1098.2	-254.71	-12.644	936.27	182.06	123.57	1255.7	1.4295	20.286	846.44	275.65	263.17	739.57	-314.55	53.012	1114.5	229.71	139.57	867.69	-306.23	63.836	1268.5	148.73	82.509	1268.6	-169.36	201.02	758.76	-315.06	194.44	1485.1	24.67	199.43	538.04	147.38	252.29	777.09	-265.12	231.49	658.58	139.58	293.37	336.34	43.451	306.19	245.46	47.989	329.83	154.46	45.775	471.79	41.575	35.781	42.344	736.71	270.37	412.35	58.675	29.241	14.599	1472.8	47.576	189.5	1475.5	-51.875	168.74	625.96	171.36	247.81	453.08	128.33	262.85	34.923	78.737	116.33	748.31	261.92	399.45	40.582	82.658	142.73	707.91	196.81	44.209	536.78	-158.13	64.929	627.52	-177.66	292.03	242.55	118.03	78.723	718.73	-200.47	82.616	980.27	-281.3	311.98	71.578	17.174	-171.97	54.541	-32.941	190.33	1153.4	-0.55305	20.916	973.53	263.71	129.11	626.7	-142.26	-127.9	266.45	-124.01	186.24	844.88	131.27	-154.78	178.67	-48.843	318.99	65.583	95.993	-305.43	127.99	-38.927	-137.49	24.214	-40.095	131.91	840.49	-172.84	-253.58	126.89	-84.951	-202.79	47.715	-87.196	-103.27	253.88	-58.749	-231.35	123.19	-7.2558
357	1.785	23.527	1465.7	-74.704	1.8647	1330.5	-5.8916	-25.567	1228.5	118.12	-46.216	885.13	-34.183	-38.751	877.83	64.645	93.828	713.21	307.62	59.057	940.11	-218.63	-29.391	317.93	-69.645	-3.0707	437.31	-150.11	-17.518	1062.4	-11.346	109.72	1098.9	-253.87	-5.4372	936.82	182.63	129.71	1256.5	2.2477	27.674	846.87	276.1	267.9	740.04	-314.33	60.338	1114.9	230.37	144.6	868.39	-305.48	70.272	1269.2	149.69	88.411	1269.4	-168.44	205.76	759.32	-314.5	200.36	1486.1	25.391	204.53	538.77	147.98	257.36	777.61	-264.88	237.79	658.97	139.58	297.65	336.3	43.698	309.31	245.26	48.21	331.91	153.98	45.957	472.48	38.762	35.516	49.528	737.09	270.76	413.21	56.894	29.203	20.577	1473.6	48.525	195.35	1476.5	-51.15	174.92	627.07	171.85	252.88	453.46	128.86	263.32	35.336	78.884	123.55	748.53	262.02	400.12	38.95	82.689	149.89	709.41	197.23	52.627	536.98	-158.68	72.711	627.88	-177.75	295.37	242.5	118.31	85.858	719.3	-200.27	87.868	981.04	-280.25	313.01	71.318	17.329	-169.99	54.969	-32.946	196.57	1154.4	0.19518	28.545	973.92	264.24	136.89	627.41	-142.42	-121.3	268.23	-124.72	192.44	845.88	131.79	-149.08	180.55	-49.743	319.93	65.218	96.196	-300.1	133.39	-38.992	-137.62	24.204	-39.824	138.7	841.11	-171.96	-248.95	130.67	-85.307	-200.74	49.16	-87.216	-96.407	254.96	-59.726	-226.35	126.44	-7.7674
358	1.79	29.372	1466.5	-73.776	7.9945	1331.3	-4.8597	-19.121	1229.3	119.24	-39.932	885.18	-34.277	-32.566	878.65	64.81	101.22	713.63	307.77	64.667	941.09	-217.32	-21.256	317.99	-70.856	6.1994	437.24	-150.92	-11.46	1063.3	-10.486	114.97	1099.8	-253.04	1.8293	937.5	183.19	135.83	1257.5	3.0489	35.142	847.42	276.55	272.49	740.55	-314.11	67.746	1115.5	231.01	149.54	869.18	-304.71	76.723	1270.1	150.64	94.323	1270.3	-167.53	210.38	759.94	-313.94	206.28	1487.2	26.111	209.48	539.52	148.63	262.31	778.16	-264.64	243.95	659.37	139.74	301.8	336.28	44.001	312.29	245.09	48.488	333.86	153.54	46.185	473.05	36.266	35.297	56.809	737.61	271.14	413.96	55.328	29.22	26.556	1474.4	49.465	201.21	1477.6	-50.426	180.92	628.2	172.38	257.95	453.9	129.39	263.74	35.719	79.049	130.86	748.88	262.08	400.69	37.527	82.782	156.82	710.91	197.66	61.233	537.22	-159.24	80.599	628.28	-177.85	298.57	242.48	118.65	93.023	719.92	-200.07	93.066	981.91	-279.2	313.93	71.13	17.52	-167.84	55.501	-32.954	202.78	1155.4	0.9226	36.247	974.42	264.76	144.76	628.24	-142.58	-114.39	270.07	-125.45	198.53	846.98	132.35	-143.04	182.48	-50.674	320.77	64.909	96.428	-294.34	138.91	-39.049	-137.65	24.227	-39.587	145.47	841.8	-171.02	-243.98	134.57	-85.652	-198.49	50.76	-87.259	-89.212	256.06	-60.741	-220.98	129.76	-8.2697
359	1.795	35.221	1467.3	-72.86	14.107	1332.3	-3.843	-12.674	1230.1	120.37	-33.698	885.26	-34.425	-26.439	879.52	64.918	108.72	714.19	307.9	70.237	942.2	-215.99	-12.823	318.05	-72.107	15.738	437.17	-151.75	-5.4578	1064.3	-9.6491	120.21	1100.8	-252.22	9.1469	938.29	183.73	141.93	1258.4	3.8306	42.687	848.1	276.99	276.95	741.09	-313.9	75.227	1116.2	231.63	154.39	870.05	-303.95	83.187	1271	151.55	100.24	1271.3	-166.63	214.88	760.62	-313.37	212.21	1488.3	26.828	214.31	540.28	149.29	267.14	778.76	-264.4	249.96	659.79	140.06	305.8	336.26	44.36	315.12	244.93	48.816	335.67	153.14	46.446	473.51	34.079	35.109	64.189	738.25	271.51	414.59	53.97	29.275	32.534	1475.2	50.391	207.07	1478.7	-49.706	186.73	629.31	172.94	263	454.38	129.9	264.1	36.066	79.225	138.26	749.35	262.12	401.16	36.305	82.927	163.48	712.39	198.11	70.012	537.5	-159.81	88.581	628.73	-177.94	301.6	242.47	119.05	100.2	720.59	-199.88	98.212	982.89	-278.14	314.74	71.005	17.737	-165.48	56.162	-32.977	208.95	1156.4	1.6278	44.013	975.04	265.28	152.72	629.17	-142.76	-107.17	271.97	-126.18	204.53	848.15	132.96	-136.65	184.46	-51.626	321.53	64.648	96.677	-288.18	144.5	-39.094	-137.54	24.297	-39.401	152.21	842.57	-170.03	-238.65	138.56	-85.981	-196.01	52.531	-87.333	-81.686	257.19	-61.784	-215.25	133.14	-8.7527
360	1.8	41.07	1468.3	-71.958	20.197	1333.3	-2.8418	-6.2316	1231.1	121.5	-27.511	885.37	-34.615	-20.367	880.43	64.976	116.33	714.86	308.03	75.766	943.41	-214.64	-4.1061	318.13	-73.385	25.531	437.09	-152.6	0.49414	1065.3	-8.8369	125.45	1101.9	-251.4	16.505	939.19	184.27	148	1259.5	4.591	50.302	848.88	277.43	281.29	741.66	-313.67	82.769	1116.9	232.22	159.16	871	-303.19	89.66	1272.1	152.45	106.15	1272.4	-165.74	219.27	761.36	-312.8	218.13	1489.5	27.539	219.06	541.06	149.97	271.87	779.39	-264.16	255.82	660.26	140.53	309.65	336.25	44.773	317.81	244.8	49.185	337.36	152.78	46.728	473.87	32.189	34.938	71.669	739.01	271.87	415.11	52.807	29.351	38.507	1476.2	51.303	212.93	1479.9	-48.99	192.37	630.4	173.53	267.99	454.88	130.39	264.42	36.375	79.408	145.74	749.96	262.13	401.55	35.274	83.109	169.86	713.81	198.59	78.95	537.81	-160.38	96.643	629.22	-178.03	304.47	242.46	119.48	107.39	721.3	-199.7	103.31	983.95	-277.08	315.46	70.932	17.968	-162.89	56.98	-33.026	215.08	1157.5	2.3095	51.827	975.77	265.78	160.75	630.2	-142.94	-99.642	273.92	-126.92	210.44	849.4	133.62	-129.93	186.48	-52.589	322.21	64.428	96.932	-281.63	150.16	-39.121	-137.25	24.43	-39.288	158.92	843.41	-169	-232.96	142.64	-86.285	-193.27	54.492	-87.441	-73.838	258.35	-62.846	-209.18	136.59	-9.2048
